<?xml version="1.0" encoding="UTF-8" standalone="no"?>
<svg
   xmlns:dc="http://purl.org/dc/elements/1.1/"
   xmlns:cc="http://creativecommons.org/ns#"
   xmlns:rdf="http://www.w3.org/1999/02/22-rdf-syntax-ns#"
   xmlns:svg="http://www.w3.org/2000/svg"
   xmlns="http://www.w3.org/2000/svg"
   xmlns:sodipodi="http://sodipodi.sourceforge.net/DTD/sodipodi-0.dtd"
   xmlns:inkscape="http://www.inkscape.org/namespaces/inkscape"
   width="20"
   height="24.734386"
   viewBox="0 0 20 24.734386"
   id="svg2"
   version="1.1"
   inkscape:version="0.91 r13725"
   sodipodi:docname="arrowUp.svg">
  <sodipodi:namedview
     pagecolor="#ffffff"
     bordercolor="#666666"
     borderopacity="1"
     objecttolerance="10"
     gridtolerance="10"
     guidetolerance="10"
     inkscape:pageopacity="0"
     inkscape:pageshadow="2"
     inkscape:window-width="1920"
     inkscape:window-height="1056"
     id="namedview6"
     showgrid="false"
     inkscape:zoom="9.5413727"
     inkscape:cx="16.831753"
     inkscape:cy="11.4701"
     inkscape:window-x="0"
     inkscape:window-y="24"
     inkscape:window-maximized="1"
     inkscape:current-layer="svg2" />
  <defs
     id="defs4" />
  <metadata
     id="metadata7">
    <rdf:RDF>
      <cc:Work
         rdf:about="">
        <dc:format>image/svg+xml</dc:format>
        <dc:type
           rdf:resource="http://purl.org/dc/dcmitype/StillImage" />
        <dc:title />
      </cc:Work>
    </rdf:RDF>
  </metadata>
  <path
     id="path4133"
     d="m 2.747594,7.2480582 c 0,-0.301562 0.116583,-0.60291 0.347656,-0.833984 L 9.159704,0.34962119 c 0.11362,-0.113618 0.245428,-0.19811 0.384766,-0.25586 0.145751,-0.06042 0.299959,-0.0944699986 0.455078,-0.09374999861 l 0.0059,0 c 0.153433,1e-6 0.299358,0.03505999861 0.433594,0.08788999861 0.219936,0.08657 0.389644,0.245618 0.521485,0.4375 l 5.945271,5.94531401 c 0.462144,0.462146 0.462144,1.205822 0,1.667968 -0.462145,0.462144 -1.207778,0.462144 -1.669922,0 l -4.050781,-4.050781 0,19.4667968 c 0,0.653572 -0.526115,1.179687 -1.179688,1.179687 -0.653571,0 -1.179688,-0.526115 -1.179688,-1.179687 l 0,-19.5332028 -4.0625,4.060547 c -0.462146,0.462147 -1.205823,0.462147 -1.667969,0 C 2.864173,7.8509702 2.747594,7.5496212 2.747594,7.2480582 Z"
     style="color:#000000;clip-rule:nonzero;display:inline;overflow:visible;visibility:visible;opacity:1;isolation:auto;mix-blend-mode:normal;color-interpolation:sRGB;color-interpolation-filters:linearRGB;solid-color:#000000;solid-opacity:1;fill:#fffef5;fill-opacity:1;fill-rule:evenodd;stroke:none;stroke-width:1px;stroke-linecap:butt;stroke-linejoin:miter;stroke-miterlimit:4;stroke-dasharray:none;stroke-dashoffset:0;stroke-opacity:1;color-rendering:auto;image-rendering:auto;shape-rendering:auto;text-rendering:auto;enable-background:accumulate"
     inkscape:connector-curvature="0" />
</svg>
