<?xml version="1.0" encoding="UTF-8" standalone="no"?>
<svg
   xmlns:dc="http://purl.org/dc/elements/1.1/"
   xmlns:cc="http://creativecommons.org/ns#"
   xmlns:rdf="http://www.w3.org/1999/02/22-rdf-syntax-ns#"
   xmlns:svg="http://www.w3.org/2000/svg"
   xmlns="http://www.w3.org/2000/svg"
   xmlns:sodipodi="http://sodipodi.sourceforge.net/DTD/sodipodi-0.dtd"
   xmlns:inkscape="http://www.inkscape.org/namespaces/inkscape"
   version="1.1"
   id="svg2"
   viewBox="0 0 40 40"
   height="40"
   width="40"
   inkscape:version="0.91 r13725"
   sodipodi:docname="arrowRightCircle.svg">
  <sodipodi:namedview
     pagecolor="#ffffff"
     bordercolor="#666666"
     borderopacity="1"
     objecttolerance="10"
     gridtolerance="10"
     guidetolerance="10"
     inkscape:pageopacity="0"
     inkscape:pageshadow="2"
     inkscape:window-width="1920"
     inkscape:window-height="1056"
     id="namedview9"
     showgrid="false"
     inkscape:zoom="12.418563"
     inkscape:cx="26.167331"
     inkscape:cy="10.224139"
     inkscape:window-x="0"
     inkscape:window-y="24"
     inkscape:window-maximized="1"
     inkscape:current-layer="svg2" />
  <defs
     id="defs4" />
  <metadata
     id="metadata7">
    <rdf:RDF>
      <cc:Work
         rdf:about="">
        <dc:format>image/svg+xml</dc:format>
        <dc:type
           rdf:resource="http://purl.org/dc/dcmitype/StillImage" />
        <dc:title></dc:title>
      </cc:Work>
    </rdf:RDF>
  </metadata>
  <path
     style="color:#000000;clip-rule:nonzero;display:inline;overflow:visible;visibility:visible;opacity:1;isolation:auto;mix-blend-mode:normal;color-interpolation:sRGB;color-interpolation-filters:linearRGB;solid-color:#000000;solid-opacity:1;fill:#000000;fill-opacity:1;fill-rule:evenodd;stroke:none;stroke-width:1px;stroke-linecap:butt;stroke-linejoin:miter;stroke-miterlimit:4;stroke-dasharray:none;stroke-dashoffset:0;stroke-opacity:1;color-rendering:auto;image-rendering:auto;shape-rendering:auto;text-rendering:auto;enable-background:accumulate"
     d="M 20 0 A 20 20 0 0 0 0 20 A 20 20 0 0 0 20 40 A 20 20 0 0 0 40 20 A 20 20 0 0 0 20 0 z M 25.119141 12.748047 C 25.420703 12.748047 25.722051 12.86463 25.953125 13.095703 L 32.017578 19.160156 C 32.131196 19.273776 32.215688 19.405584 32.273438 19.544922 C 32.333857 19.690673 32.367905 19.844881 32.367188 20 C 32.367198 20.0018 32.367188 20.004059 32.367188 20.005859 C 32.367187 20.159292 32.332127 20.305217 32.279297 20.439453 C 32.192723 20.659389 32.033679 20.829097 31.841797 20.960938 L 25.896484 26.90625 C 25.434338 27.368394 24.690662 27.368394 24.228516 26.90625 C 23.766372 26.444105 23.766372 25.698472 24.228516 25.236328 L 28.279297 21.185547 L 8.8125 21.185547 C 8.1589278 21.185547 7.6328125 20.659432 7.6328125 20.005859 C 7.6328125 19.352288 8.1589278 18.826172 8.8125 18.826172 L 28.345703 18.826172 L 24.285156 14.763672 C 23.823009 14.301526 23.823009 13.557849 24.285156 13.095703 C 24.516229 12.864626 24.817578 12.748047 25.119141 12.748047 z "
     id="path4133" />
</svg>
