<?xml version="1.0" encoding="UTF-8" standalone="no"?>
<svg
   xmlns:dc="http://purl.org/dc/elements/1.1/"
   xmlns:cc="http://creativecommons.org/ns#"
   xmlns:rdf="http://www.w3.org/1999/02/22-rdf-syntax-ns#"
   xmlns:svg="http://www.w3.org/2000/svg"
   xmlns="http://www.w3.org/2000/svg"
   xmlns:sodipodi="http://sodipodi.sourceforge.net/DTD/sodipodi-0.dtd"
   xmlns:inkscape="http://www.inkscape.org/namespaces/inkscape"
   width="20"
   height="24.734386"
   viewBox="0 0 20 24.734386"
   id="svg2"
   version="1.1"
   inkscape:version="0.91 r13725"
   sodipodi:docname="arrowUpSm.svg">
  <sodipodi:namedview
     pagecolor="#ffffff"
     bordercolor="#666666"
     borderopacity="1"
     objecttolerance="10"
     gridtolerance="10"
     guidetolerance="10"
     inkscape:pageopacity="0"
     inkscape:pageshadow="2"
     inkscape:window-width="1920"
     inkscape:window-height="1056"
     id="namedview12"
     showgrid="false"
     inkscape:zoom="9.5413727"
     inkscape:cx="1.9182932"
     inkscape:cy="11.947967"
     inkscape:window-x="0"
     inkscape:window-y="24"
     inkscape:window-maximized="1"
     inkscape:current-layer="svg2" />
  <defs
     id="defs4" />
  <metadata
     id="metadata7">
    <rdf:RDF>
      <cc:Work
         rdf:about="">
        <dc:format>image/svg+xml</dc:format>
        <dc:type
           rdf:resource="http://purl.org/dc/dcmitype/StillImage" />
        <dc:title />
      </cc:Work>
    </rdf:RDF>
  </metadata>
  <path
     id="path4133"
     d="m 5.0000018,8.8378979 c 0,-0.207905 0.080383,-0.415664 0.2396808,-0.5749736 L 9.4206751,4.0819334 c 0.07835,-0.07835 0.1692042,-0.1365817 0.2652717,-0.1763958 0.1004841,-0.041583 0.2067974,-0.065158 0.3137399,-0.064567 l 0.00408,0 c 0.10578,-2.5e-6 0.206385,0.0242 0.298931,0.060533 0.151622,0.059675 0.268623,0.1693408 0.359517,0.3016274 l 4.098822,4.0988422 c 0.318615,0.318617 0.318615,0.831326 0,1.149938 -0.318614,0.318615 -0.832674,0.318615 -1.151288,0 l -2.792715,-2.7927148 0,13.4209226 c 0,0.45059 -0.362717,0.813307 -0.813307,0.813307 -0.4505864,0 -0.8133039,-0.362717 -0.8133039,-0.813307 l 0,-13.4667035 -2.8007994,2.7994477 c -0.3186142,0.318619 -0.8313241,0.318619 -1.1499423,0 -0.1593108,-0.159308 -0.23968,-0.367063 -0.23968,-0.574967 z"
     style="color:#000000;clip-rule:nonzero;display:inline;overflow:visible;visibility:visible;opacity:1;isolation:auto;mix-blend-mode:normal;color-interpolation:sRGB;color-interpolation-filters:linearRGB;solid-color:#000000;solid-opacity:1;fill:#fffef5;fill-opacity:1;fill-rule:evenodd;stroke:none;stroke-width:1px;stroke-linecap:butt;stroke-linejoin:miter;stroke-miterlimit:4;stroke-dasharray:none;stroke-dashoffset:0;stroke-opacity:1;color-rendering:auto;image-rendering:auto;shape-rendering:auto;text-rendering:auto;enable-background:accumulate"
     inkscape:connector-curvature="0" />
</svg>
