<?xml version="1.0" encoding="UTF-8" standalone="no"?>
<svg
   xmlns:dc="http://purl.org/dc/elements/1.1/"
   xmlns:cc="http://creativecommons.org/ns#"
   xmlns:rdf="http://www.w3.org/1999/02/22-rdf-syntax-ns#"
   xmlns:svg="http://www.w3.org/2000/svg"
   xmlns="http://www.w3.org/2000/svg"
   width="40"
   height="40"
   viewBox="0 0 40 40"
   id="svg2"
   version="1.1">
  <defs
     id="defs4" />
  <metadata
     id="metadata7">
    <rdf:RDF>
      <cc:Work
         rdf:about="">
        <dc:format>image/svg+xml</dc:format>
        <dc:type
           rdf:resource="http://purl.org/dc/dcmitype/StillImage" />
        <dc:title></dc:title>
      </cc:Work>
    </rdf:RDF>
  </metadata>
  <path
     id="path4133"
     d="M 40,20 A 20,20 0 0 0 20,0 20,20 0 0 0 0,20 20,20 0 0 0 20,40 20,20 0 0 0 40,20 Z m -12.748047,5.119141 c 0,0.301562 -0.116583,0.60291 -0.347656,0.833984 l -6.064453,6.064453 c -0.11362,0.113618 -0.245428,0.19811 -0.384766,0.25586 -0.145751,0.06042 -0.299959,0.09447 -0.455078,0.09375 -0.0018,1e-5 -0.0041,0 -0.0059,0 -0.153433,-10e-7 -0.299358,-0.03506 -0.433594,-0.08789 -0.219936,-0.08657 -0.389644,-0.245618 -0.521485,-0.4375 L 13.09375,25.896484 c -0.462144,-0.462146 -0.462144,-1.205822 0,-1.667968 0.462145,-0.462144 1.207778,-0.462144 1.669922,0 l 4.050781,4.050781 0,-19.466797 c 0,-0.6535722 0.526115,-1.1796875 1.179688,-1.1796875 0.653571,0 1.179687,0.5261153 1.179687,1.1796875 l 0,19.533203 4.0625,-4.060547 c 0.462146,-0.462147 1.205823,-0.462147 1.667969,0 0.231077,0.231073 0.347656,0.532422 0.347656,0.833985 z"
     style="color:#000000;clip-rule:nonzero;display:inline;overflow:visible;visibility:visible;opacity:1;isolation:auto;mix-blend-mode:normal;color-interpolation:sRGB;color-interpolation-filters:linearRGB;solid-color:#000000;solid-opacity:1;fill:#000000;fill-opacity:1;fill-rule:evenodd;stroke:none;stroke-width:1px;stroke-linecap:butt;stroke-linejoin:miter;stroke-miterlimit:4;stroke-dasharray:none;stroke-dashoffset:0;stroke-opacity:1;color-rendering:auto;image-rendering:auto;shape-rendering:auto;text-rendering:auto;enable-background:accumulate" />
</svg>
