<?xml version="1.0" encoding="UTF-8" standalone="no"?>
<svg
   xmlns:dc="http://purl.org/dc/elements/1.1/"
   xmlns:cc="http://creativecommons.org/ns#"
   xmlns:rdf="http://www.w3.org/1999/02/22-rdf-syntax-ns#"
   xmlns:svg="http://www.w3.org/2000/svg"
   xmlns="http://www.w3.org/2000/svg"
   xmlns:sodipodi="http://sodipodi.sourceforge.net/DTD/sodipodi-0.dtd"
   xmlns:inkscape="http://www.inkscape.org/namespaces/inkscape"
   version="1.1"
   id="svg2"
   viewBox="0 0 40 40"
   height="40"
   width="40"
   inkscape:version="0.91 r13725"
   sodipodi:docname="arrowLeftCircle.svg">
  <sodipodi:namedview
     pagecolor="#ffffff"
     bordercolor="#666666"
     borderopacity="1"
     objecttolerance="10"
     gridtolerance="10"
     guidetolerance="10"
     inkscape:pageopacity="0"
     inkscape:pageshadow="2"
     inkscape:window-width="1920"
     inkscape:window-height="1056"
     id="namedview9"
     showgrid="false"
     inkscape:zoom="12.418563"
     inkscape:cx="26.167331"
     inkscape:cy="8.2426864"
     inkscape:window-x="0"
     inkscape:window-y="24"
     inkscape:window-maximized="1"
     inkscape:current-layer="svg2" />
  <defs
     id="defs4" />
  <metadata
     id="metadata7">
    <rdf:RDF>
      <cc:Work
         rdf:about="">
        <dc:format>image/svg+xml</dc:format>
        <dc:type
           rdf:resource="http://purl.org/dc/dcmitype/StillImage" />
        <dc:title></dc:title>
      </cc:Work>
    </rdf:RDF>
  </metadata>
  <path
     style="color:#000000;clip-rule:nonzero;display:inline;overflow:visible;visibility:visible;opacity:1;isolation:auto;mix-blend-mode:normal;color-interpolation:sRGB;color-interpolation-filters:linearRGB;solid-color:#000000;solid-opacity:1;fill:#000000;fill-opacity:1;fill-rule:evenodd;stroke:none;stroke-width:1px;stroke-linecap:butt;stroke-linejoin:miter;stroke-miterlimit:4;stroke-dasharray:none;stroke-dashoffset:0;stroke-opacity:1;color-rendering:auto;image-rendering:auto;shape-rendering:auto;text-rendering:auto;enable-background:accumulate"
     d="M 20,40 A 20,20 0 0 0 40,20 20,20 0 0 0 20,0 20,20 0 0 0 0,20 20,20 0 0 0 20,40 Z M 14.880859,27.251953 c -0.301562,0 -0.60291,-0.116583 -0.833984,-0.347656 L 7.982422,20.839844 C 7.868804,20.726224 7.784312,20.594416 7.726562,20.455078 7.666143,20.309327 7.632095,20.155119 7.632812,20 c -1e-5,-0.0018 0,-0.0041 0,-0.0059 10e-7,-0.153433 0.035061,-0.299358 0.087891,-0.433594 0.086574,-0.219936 0.245618,-0.389644 0.4375,-0.521485 l 5.945313,-5.945312 c 0.462146,-0.462144 1.205822,-0.462144 1.667968,0 0.462144,0.462145 0.462144,1.207778 0,1.669922 l -4.050781,4.050781 19.466797,0 c 0.653572,0 1.179687,0.526115 1.179687,1.179688 0,0.653571 -0.526115,1.179687 -1.179687,1.179687 l -19.533203,0 4.060547,4.0625 c 0.462147,0.462146 0.462147,1.205823 0,1.667969 -0.231073,0.231077 -0.532422,0.347656 -0.833985,0.347656 z"
     id="path4133"
     inkscape:connector-curvature="0" />
</svg>
