<?xml version="1.0" encoding="UTF-8" standalone="no"?>
<svg
   xmlns:dc="http://purl.org/dc/elements/1.1/"
   xmlns:cc="http://creativecommons.org/ns#"
   xmlns:rdf="http://www.w3.org/1999/02/22-rdf-syntax-ns#"
   xmlns:svg="http://www.w3.org/2000/svg"
   xmlns="http://www.w3.org/2000/svg"
   version="1.1"
   id="svg2"
   viewBox="0 0 17 10"
   height="10"
   width="17">
  <defs
     id="defs4" />
  <metadata
     id="metadata7">
    <rdf:RDF>
      <cc:Work
         rdf:about="">
        <dc:format>image/svg+xml</dc:format>
        <dc:type
           rdf:resource="http://purl.org/dc/dcmitype/StillImage" />
        <dc:title></dc:title>
      </cc:Work>
    </rdf:RDF>
  </metadata>
  <path
     style="color:currentColor;clip-rule:nonzero;display:inline;overflow:visible;visibility:visible;opacity:1;isolation:auto;mix-blend-mode:normal;color-interpolation:sRGB;color-interpolation-filters:linearRGB;solid-color:currentColor;solid-opacity:1;fill:currentColor;fill-opacity:1;fill-rule:evenodd;stroke:none;stroke-width:1px;stroke-linecap:butt;stroke-linejoin:miter;stroke-miterlimit:4;stroke-dasharray:none;stroke-dashoffset:0;stroke-opacity:1;color-rendering:auto;image-rendering:auto;shape-rendering:auto;text-rendering:auto;enable-background:accumulate"
     d="m 12.018204,0 c -0.207282,0 -0.414652,0.0808466 -0.573482,0.24015265 -0.317661,0.31861375 -0.317661,0.83179465 0,1.15040845 l 2.792105,2.8004888 -13.4258419,0 C 0.3617461,4.1910499 0,4.5538822 0,5.0044692 0,5.4550574 0.3617461,5.8178906 0.8109851,5.8178906 l 13.3795029,0 -2.784385,2.7927406 c -0.31766,0.3186123 -0.31766,0.8317955 0,1.1504089 0.31766,0.3186129 0.829304,0.3186129 1.146966,0 l 4.08582,-4.0980878 c 0.131892,-0.090893 0.241716,-0.2085986 0.301223,-0.3602277 0.03632,-0.092545 0.05988,-0.1924753 0.05988,-0.2982554 l 0,-0.00387 C 17.00049,4.893657 16.977809,4.7873372 16.936274,4.6868522 16.896583,4.5907982 16.838657,4.4998543 16.76056,4.4215223 L 12.591687,0.24015396 C 12.432855,0.08084578 12.225486,0 12.018204,0 Z"
     id="rect4140-3" />
</svg>
